<?xml version="1.0" encoding="utf-8"?>
<!-- Generator: Adobe Illustrator 22.1.0, SVG Export Plug-In . SVG Version: 6.00 Build 0)  -->
<svg version="1.1" id="footer" xmlns="http://www.w3.org/2000/svg" xmlns:xlink="http://www.w3.org/1999/xlink" x="0px" y="0px"
	 viewBox="0 0 203.2 203.2" enable-background="new 0 0 203.2 203.2" xml:space="preserve">
<g>
	<circle opacity="0.25" fill="#FFFFFF" cx="101.6" cy="101.6" r="101.6"/>
	<g>
		<g>
			<path fill="#FFFFFF" d="M107.4,92.8c3.7-5.7,8.8-9.3,15.4-10.8c6.5-1.5,13-1.1,19.3,1.3c7.3,2.8,11.2,8.6,13.2,16
				c1.5,5.8,1.8,11.8,1.8,17.8c0,12.7,0,25.3,0,38c0,1.7,0,1.7-1.7,1.7c-6.7,0-13.4,0-20.1,0c-1.2,0-1.5-0.4-1.5-1.5
				c0-12.6,0.1-25.3,0-37.9c0-2.8-0.4-5.7-1.2-8.5c-1.7-6-6.3-7.7-11.7-7.4c-2.7,0.2-5.3,0.8-7.5,2.6c-2.8,2.3-4,5.6-4.5,9
				c-0.3,2.3-0.5,4.6-0.5,7c-0.1,11.7,0,23.4,0,35.1c0,1.5,0,1.5-1.5,1.5c-6.7,0-13.4,0-20.1,0c-1.1,0-1.5-0.3-1.5-1.5
				c0-23.6,0-47.2,0-70.9c0-1.1,0.2-1.5,1.5-1.5c6.4,0.1,12.9,0,19.3,0c1.1,0,1.5,0.3,1.5,1.4C107.4,87.2,107.4,90,107.4,92.8z"/>
			<path fill="#FFFFFF" d="M48,119.9c0-11.8,0-23.6,0-35.4c0-1.5,0-1.5,1.5-1.5c6.7,0,13.4,0,20.1,0c1.5,0,1.5,0,1.5,1.5
				c0,23.6,0,47.2,0,70.7c0,1.5,0,1.5-1.5,1.5c-6.7,0-13.4,0-20.1,0c-1.5,0-1.5,0-1.5-1.5C48,143.4,48,131.6,48,119.9z"/>
			<path fill="#FFFFFF" d="M59.7,46.4c6.9,0,13.3,5.6,13.4,13.4c0.1,7.3-6.2,13.5-13.5,13.5c-7.4,0-13.4-6.1-13.4-13.5
				C46.2,52.4,52.3,46.4,59.7,46.4z"/>
		</g>
	</g>
</g>
</svg>
