<?xml version="1.0" encoding="utf-8"?>
<!-- Generator: Adobe Illustrator 22.1.0, SVG Export Plug-In . SVG Version: 6.00 Build 0)  -->
<svg version="1.1" id="footer" xmlns="http://www.w3.org/2000/svg" xmlns:xlink="http://www.w3.org/1999/xlink" x="0px" y="0px"
	 viewBox="0 0 203.2 203.2" enable-background="new 0 0 203.2 203.2" xml:space="preserve">
<g>
	<circle opacity="0.25" fill="#FFFFFF" cx="101.6" cy="101.6" r="101.6"/>
	<g>
		<g>
			<path fill="#FFFFFF" d="M40.6,141.4c13.3,0.5,25-2.9,35.5-11.1c-11-1.4-18.7-6.9-22.8-17.2c3.6-0.2,6.9-0.4,10.2-0.5
				c0-0.2,0-0.5-0.1-0.7c-13.3-5.9-19.7-14-19.2-24.4c3.4,0.9,6.8,1.9,10.2,2.8c0.2-0.2,0.3-0.4,0.5-0.7
				c-10.8-9.3-13.2-20.3-7.4-33.5c14,16.2,31.2,25.1,52.5,26.6c-0.1-2.1-0.3-4-0.3-5.8c0.1-10.8,5.2-18.8,14.9-23.1
				c9.7-4.3,18.9-2.8,27,4.1c1.6,1.3,2.9,1.7,4.6,1c4.2-1.6,8.5-3.1,12.8-4.7c-1.7,5.2-5.2,9.2-9.7,12.5c0.1,0.3,0.2,0.5,0.4,0.8
				c4.1-1.1,8.2-2.2,12.4-3.3c0.2,0.2,0.3,0.3,0.5,0.5c-3.6,3.5-7.3,7-10.8,10.7c-0.7,0.8-1.4,2-1.4,3c0.5,31.4-20.3,65-57.1,72.2
				c-18,3.5-35.2,1-51.2-8.1C41.6,142,41.1,141.7,40.6,141.4z"/>
		</g>
	</g>
</g>
</svg>
