<?xml version="1.0" encoding="utf-8"?>
<!-- Generator: Adobe Illustrator 22.1.0, SVG Export Plug-In . SVG Version: 6.00 Build 0)  -->
<svg version="1.1" id="footer" xmlns="http://www.w3.org/2000/svg" xmlns:xlink="http://www.w3.org/1999/xlink" x="0px" y="0px"
	 viewBox="0 0 203.2 203.2" enable-background="new 0 0 203.2 203.2" xml:space="preserve">
<g>
	<circle opacity="0.25" fill="#FFFFFF" cx="101.6" cy="101.6" r="101.6"/>
	<g>
		<g>
			<path fill="#FFFFFF" d="M159.5,85.9l0-7.4c0-1.9-0.1-3.7-0.4-5.3c-1.1-7.3-4.2-13.6-9.3-18.8c-6.8-7-15.1-10.5-24.8-10.6
				c-5.4,0-10.8,0-16.1,0l-7.2,0v0l-6.9,0c-5.4,0-10.7,0-16.1,0c0,0-0.1,0-0.1,0c-4.9,0-9.7,1-14,2.9c-12.6,5.5-20.8,18-20.8,31.8
				c0,15.5,0,31,0,46.4c0,1.9,0.1,3.6,0.4,5.3c1.4,8.8,5.6,16.2,12.6,21.8c6.2,5,13.4,7.6,21.2,7.6c6.6,0,13.3,0,19.9,0
				c6.8,0,13.6,0,20.4,0l7,0c1.3,0,2.7-0.1,4.2-0.3c5.9-0.8,11.3-2.9,15.8-6.4c9.4-7.1,14.1-16.5,14.2-28
				C159.5,111.8,159.5,98.6,159.5,85.9z M146.1,124.7c-0.1,8.7-4.1,15.2-11.9,19.3c-2.7,1.4-5.7,2.1-8.9,2.1c-8.8,0-17.6,0-26.4,0
				l-9.3,0h-11c-10,0-18.4-6.6-20.8-16.3c-0.4-1.5-0.6-3-0.6-4.5l0-10.5c0-12.3,0-24.6,0-36.8c0-9,6.1-17.2,14.8-19.8
				c2.1-0.7,4.3-1,6.7-1l23,0l7.4,0c5.4,0,10.8,0,16.2,0c9.7,0,18.5,7.2,20.5,16.8c0.3,1.5,0.5,3,0.5,4.6c0,4.7,0,9.3,0,14
				C146.1,103.1,146.1,114,146.1,124.7z"/>
			<path fill="#FFFFFF" d="M102.1,69.3c-8.6-0.1-16.9,3.2-23.1,9.3c-6.2,6.1-9.6,14.3-9.6,23c0,17.8,14.4,32.3,32.1,32.3
				c0,0,0,0,0.1,0c8.6,0,16.7-3.4,22.9-9.5c6.1-6.1,9.5-14.2,9.5-22.8C133.9,84.1,119.6,69.6,102.1,69.3z M115,115
				c-3.6,3.6-8.3,5.5-13.4,5.5c0,0,0,0,0,0c-10.4,0-18.9-8.5-18.9-18.9c0-5.1,2-9.8,5.6-13.4c3.6-3.6,8.5-5.6,13.6-5.5
				c10.3,0.1,18.7,8.5,18.7,18.9C120.5,106.7,118.5,111.4,115,115z"/>
			<path fill="#FFFFFF" d="M132.3,65.1L132.3,65.1C132.3,65.1,132.3,65.1,132.3,65.1c-3.7,0-6.7,3-6.7,6.7c0,3.7,3,6.7,6.6,6.7
				c0,0,0,0,0,0c1.8,0,3.5-0.7,4.7-2c1.3-1.3,2-2.9,2-4.7C139,68.1,136,65.1,132.3,65.1z"/>
		</g>
	</g>
</g>
</svg>
