<?xml version="1.0" encoding="utf-8"?>
<!-- Generator: Adobe Illustrator 22.1.0, SVG Export Plug-In . SVG Version: 6.00 Build 0)  -->
<svg version="1.1" id="footer" xmlns="http://www.w3.org/2000/svg" xmlns:xlink="http://www.w3.org/1999/xlink" x="0px" y="0px"
	 viewBox="0 0 203.2 203.2" enable-background="new 0 0 203.2 203.2" xml:space="preserve">
<g>
	<circle opacity="0.25" fill="#FFFFFF" cx="101.6" cy="101.6" r="101.6"/>
	<g id="XMLID_1732_">
		<g>
			<path id="XMLID_9_" fill="#FFFFFF" d="M110.4,130.9c0,9.1,0,18.2,0,27.3c0,1.6-0.4,2.1-2.1,2.1c-6.7-0.1-13.4-0.1-20.1,0
				c-1.8,0-2.3-0.4-2.3-2.3c0.1-17.9,0-35.8,0.1-53.7c0-2.1-0.3-3-2.7-2.8c-2.4,0.2-4.9,0-7.4,0.1c-1.2,0-1.7-0.2-1.6-1.5
				c0.1-5.9,0.1-11.8,0-17.7c0-1.3,0.5-1.6,1.6-1.5c2.7,0.1,5.3-0.1,8,0.1c1.7,0.1,2-0.5,2-2.1c-0.1-4-0.1-7.9,0-11.9
				c0.1-6.6,1.8-12.5,6.5-17.4c4-4.1,9-6,14.5-6.3c6.6-0.3,13.1-0.1,19.7-0.2c1.3,0,1.8,0.4,1.7,1.7c-0.1,5.6-0.1,11.3,0,16.9
				c0,1.4-0.5,1.7-1.7,1.7c-3.5-0.1-7.1-0.1-10.6,0c-3.9,0-5.7,1.8-5.7,5.7c-0.1,3.4,0,6.8,0,10.2c0,1.4,0.5,1.7,1.8,1.7
				c5-0.1,10,0,14.9-0.1c1.6,0,1.9,0.4,1.7,2c-0.6,5.5-1.2,11-1.5,16.6c-0.1,2-0.8,2.3-2.6,2.3c-4.1-0.1-8.2,0-12.3-0.1
				c-1.7-0.1-2,0.5-2,2.1C110.4,112.7,110.4,121.8,110.4,130.9z"/>
		</g>
	</g>
</g>
</svg>
